<?xml version="1.0" encoding="utf-8"?>
<!-- Generator: Adobe Illustrator 14.0.0, SVG Export Plug-In . SVG Version: 6.00 Build 43363)  -->
<!DOCTYPE svg PUBLIC "-//W3C//DTD SVG 1.1//EN" "http://www.w3.org/Graphics/SVG/1.1/DTD/svg11.dtd">
<svg version="1.1" id="Layer_1" xmlns="http://www.w3.org/2000/svg" xmlns:xlink="http://www.w3.org/1999/xlink" x="0px" y="0px"
	 width="125.872px" height="82.848px" viewBox="0 0 125.872 82.848" enable-background="new 0 0 125.872 82.848"
	 xml:space="preserve">
<g>
	<g id="XMLID_1_">
		<g>
			<ellipse fill="#29ABE2" cx="63.083" cy="44.437" rx="33.03" ry="23.3"/>
		</g>
		<g>
			<ellipse fill="none" stroke="#000000" stroke-width="2" cx="63.083" cy="44.437" rx="33.03" ry="23.3"/>
		</g>
	</g>
	<path fill="none" stroke="#000000" stroke-width="2" d="M46.294,24.099c0-8.038-5.902-14.542-13.195-14.542"/>
	<path fill="none" stroke="#000000" stroke-width="2" d="M79.022,24.099c0-8.038,5.901-14.542,13.195-14.542"/>
	<path fill="none" stroke="#000000" stroke-width="2" d="M40.922,62.183c-7.94-1.254-15.285,3.562-16.422,10.766"/>
	<path fill="none" stroke="#000000" stroke-width="2" d="M32.163,36.459c-2.136-7.749-9.554-12.45-16.585-10.511"/>
	<path fill="none" stroke="#000000" stroke-width="2" d="M31.021,50.467c-5.693-5.672-14.466-6.083-19.614-0.917"/>
	<path fill="none" stroke="#000000" stroke-width="2" d="M85.022,62.183c7.94-1.254,15.284,3.562,16.423,10.766"/>
	<path fill="none" stroke="#000000" stroke-width="2" d="M93.781,36.459c2.137-7.749,9.554-12.45,16.585-10.511"/>
	<path fill="none" stroke="#000000" stroke-width="2" d="M94.924,50.467c5.693-5.672,14.466-6.083,19.614-0.917"/>
	<g id="XMLID_2_">
		<g>
			<path fill="#29ABE2" d="M117.293,49.307c3.66,0,6.63,2.07,6.63,4.63c0,2.55-2.97,4.62-6.63,4.62c-3.649,0-6.62-2.07-6.62-4.62
				C110.673,51.377,113.644,49.307,117.293,49.307z"/>
			<path fill="#29ABE2" d="M116.293,19.307c3.66,0,6.63,2.07,6.63,4.63c0,2.55-2.97,4.62-6.63,4.62c-3.649,0-6.62-2.07-6.62-4.62
				C109.673,21.377,112.644,19.307,116.293,19.307z"/>
			<path fill="#29ABE2" d="M103.923,72.347c3.66,0,6.62,2.07,6.62,4.62c0,2.561-2.96,4.63-6.62,4.63s-6.63-2.069-6.63-4.63
				C97.293,74.417,100.263,72.347,103.923,72.347z"/>
			<path fill="#29ABE2" d="M97.673,2.307c3.65,0,6.62,2.07,6.62,4.63c0,2.55-2.97,4.62-6.62,4.62c-3.66,0-6.63-2.07-6.63-4.62
				C91.043,4.377,94.013,2.307,97.673,2.307z"/>
			<path fill="#29ABE2" d="M27.643,2.307c3.66,0,6.63,2.07,6.63,4.63c0,2.55-2.97,4.62-6.63,4.62c-3.65,0-6.62-2.07-6.62-4.62
				C21.023,4.377,23.993,2.307,27.643,2.307z"/>
			<path fill="#29ABE2" d="M22.023,72.347c3.66,0,6.62,2.07,6.62,4.62c0,2.561-2.96,4.63-6.62,4.63c-3.66,0-6.63-2.069-6.63-4.63
				C15.393,74.417,18.363,72.347,22.023,72.347z"/>
			<path fill="#29ABE2" d="M9.643,19.307c3.66,0,6.63,2.07,6.63,4.63c0,2.55-2.97,4.62-6.63,4.62c-3.65,0-6.62-2.07-6.62-4.62
				C3.023,21.377,5.993,19.307,9.643,19.307z"/>
			<path fill="#29ABE2" d="M8.643,49.307c3.66,0,6.63,2.07,6.63,4.63c0,2.55-2.97,4.62-6.63,4.62c-3.65,0-6.62-2.07-6.62-4.62
				C2.023,51.377,4.993,49.307,8.643,49.307z"/>
		</g>
		<g>
			<path fill="none" stroke="#000000" stroke-width="2" d="M34.273,6.937c0,2.55-2.97,4.62-6.63,4.62c-3.65,0-6.62-2.07-6.62-4.62
				c0-2.56,2.97-4.63,6.62-4.63C31.303,2.307,34.273,4.377,34.273,6.937z"/>
			<path fill="none" stroke="#000000" stroke-width="2" d="M91.043,6.937c0,2.55,2.97,4.62,6.63,4.62c3.65,0,6.62-2.07,6.62-4.62
				c0-2.56-2.97-4.63-6.62-4.63C94.013,2.307,91.043,4.377,91.043,6.937z"/>
			<path fill="none" stroke="#000000" stroke-width="2" d="M28.643,76.967c0-2.55-2.96-4.62-6.62-4.62c-3.66,0-6.63,2.07-6.63,4.62
				c0,2.561,2.97,4.63,6.63,4.63C25.683,81.597,28.643,79.527,28.643,76.967z"/>
			<path fill="none" stroke="#000000" stroke-width="2" d="M16.273,23.937c0,2.55-2.97,4.62-6.63,4.62c-3.65,0-6.62-2.07-6.62-4.62
				c0-2.56,2.97-4.63,6.62-4.63C13.303,19.307,16.273,21.377,16.273,23.937z"/>
			<path fill="none" stroke="#000000" stroke-width="2" d="M15.273,53.937c0,2.55-2.97,4.62-6.63,4.62c-3.65,0-6.62-2.07-6.62-4.62
				c0-2.56,2.97-4.63,6.62-4.63C12.303,49.307,15.273,51.377,15.273,53.937z"/>
			<path fill="none" stroke="#000000" stroke-width="2" d="M97.293,76.967c0-2.55,2.97-4.62,6.63-4.62s6.62,2.07,6.62,4.62
				c0,2.561-2.96,4.63-6.62,4.63S97.293,79.527,97.293,76.967z"/>
			<path fill="none" stroke="#000000" stroke-width="2" d="M109.673,23.937c0,2.55,2.971,4.62,6.62,4.62c3.66,0,6.63-2.07,6.63-4.62
				c0-2.56-2.97-4.63-6.63-4.63C112.644,19.307,109.673,21.377,109.673,23.937z"/>
			<path fill="none" stroke="#000000" stroke-width="2" d="M110.673,53.937c0,2.55,2.971,4.62,6.62,4.62c3.66,0,6.63-2.07,6.63-4.62
				c0-2.56-2.97-4.63-6.63-4.63C113.644,49.307,110.673,51.377,110.673,53.937z"/>
		</g>
	</g>
	<ellipse stroke="#000000" stroke-width="3" cx="51.938" cy="41.098" rx="2.026" ry="3.343"/>
	<ellipse stroke="#000000" stroke-width="3" cx="74.566" cy="41.098" rx="2.026" ry="3.343"/>
	<g>
		<g>
			<path d="M52.52,55.354c-0.339,9.954,15.898,3.625,20.234,0.863c2.213-1.409-1.089-2.268-2.463-1.393
				c-2.855,1.818-14.111,6.711-13.887,0.121C56.464,53.166,52.57,53.892,52.52,55.354L52.52,55.354z"/>
		</g>
	</g>
</g>
</svg>
